{
  "version": "1.1.6",
  "modules": [
    {
      "id": 1,
      "plugin": "Core",
      "version": "1.1.6",
      "model": "AudioInterface",
      "params": [],
      "leftModuleId": 2,
      "rightModuleId": 93,
      "data": {
        "audio": {
          "driver": 7,
          "deviceName": "US-122 MKII / US-144 MKII",
          "offset": 0,
          "maxChannels": 8,
          "sampleRate": 44100,
          "blockSize": 128
        }
      },
      "pos": [
        57,
        0
      ]
    },
    {
      "id": 2,
      "plugin": "Fundamental",
      "version": "1.4.0",
      "model": "VCMixer",
      "params": [
        {
          "id": 0,
          "value": 0.816999853
        },
        {
          "id": 1,
          "value": 0.93211782
        },
        {
          "id": 2,
          "value": 0.704277933
        },
        {
          "id": 3,
          "value": 0.35511905
        },
        {
          "id": 4,
          "value": 0.0
        }
      ],
      "leftModuleId": 7,
      "rightModuleId": 1,
      "pos": [
        47,
        0
      ]
    },
    {
      "id": 3,
      "plugin": "Fundamental",
      "version": "1.4.0",
      "model": "VCO",
      "params": [
        {
          "id": 0,
          "value": 1.0
        },
        {
          "id": 1,
          "value": 1.0
        },
        {
          "id": 2,
          "value": -32.2379951
        },
        {
          "id": 3,
          "value": 0.0
        },
        {
          "id": 4,
          "value": 0.506500363
        },
        {
          "id": 5,
          "value": 0.5
        },
        {
          "id": 6,
          "value": 0.0
        }
      ],
      "leftModuleId": 5,
      "rightModuleId": 4,
      "pos": [
        8,
        0
      ]
    },
    {
      "id": 4,
      "plugin": "Fundamental",
      "version": "1.4.0",
      "model": "VCF",
      "params": [
        {
          "id": 0,
          "value": 0.54099977
        },
        {
          "id": 1,
          "value": 0.5
        },
        {
          "id": 2,
          "value": 0.726000011
        },
        {
          "id": 3,
          "value": 0.726999938
        },
        {
          "id": 4,
          "value": 0.0
        }
      ],
      "leftModuleId": 3,
      "rightModuleId": 6,
      "pos": [
        18,
        0
      ]
    },
    {
      "id": 5,
      "plugin": "Core",
      "version": "1.1.6",
      "model": "MIDIToCVInterface",
      "params": [],
      "rightModuleId": 3,
      "data": {
        "channels": 1,
        "polyMode": 0,
        "clockDivision": 24,
        "lastPitch": 8192,
        "lastMod": 0,
        "midi": {
          "driver": 4,
          "deviceName": "LPK25 10",
          "channel": -1
        }
      },
      "pos": [
        0,
        0
      ]
    },
    {
      "id": 6,
      "plugin": "Fundamental",
      "version": "1.4.0",
      "model": "ADSR",
      "params": [
        {
          "id": 0,
          "value": 0.258000046
        },
        {
          "id": 1,
          "value": 0.926000297
        },
        {
          "id": 2,
          "value": 0.972500205
        },
        {
          "id": 3,
          "value": 0.245499924
        }
      ],
      "leftModuleId": 4,
      "rightModuleId": 7,
      "pos": [
        26,
        0
      ]
    },
    {
      "id": 7,
      "plugin": "Fundamental",
      "version": "1.4.0",
      "model": "Scope",
      "params": [
        {
          "id": 0,
          "value": 0.0
        },
        {
          "id": 1,
          "value": 0.0
        },
        {
          "id": 2,
          "value": 0.0
        },
        {
          "id": 3,
          "value": 0.0
        },
        {
          "id": 4,
          "value": 14.0
        },
        {
          "id": 5,
          "value": 0.0
        },
        {
          "id": 6,
          "value": 0.0
        },
        {
          "id": 7,
          "value": 0.0
        }
      ],
      "leftModuleId": 6,
      "rightModuleId": 2,
      "data": {
        "lissajous": 0,
        "external": 0
      },
      "pos": [
        34,
        0
      ]
    },
    {
      "id": 8,
      "plugin": "Core",
      "version": "1.1.6",
      "model": "Notes",
      "params": [],
      "leftModuleId": 42,
      "rightModuleId": 94,
      "text": "Demo patch instructions:\n\n1. Choose an audio driver and device in the AUDIO-8 module.\n\n2. Use the QWERTY and ZXCVB rows of your keyboard to generate MIDI notes, which are converted to 1V/oct and GATE signals.\n\n3. Drag knobs up/down. Hold Ctrl (Cmd on Mac) while dragging to fine-tune. Right-click knobs to edit, or double-click to initialize.\n\n4. Drag ports to create and move cables. Stack multiple cables on outputs by holding Ctrl (Cmd on Mac) and dragging from an output.\n\n5. Right-click on an empty rack space to add new modules.",
      "pos": [
        51,
        1
      ]
    },
    {
      "id": 33,
      "plugin": "Fundamental",
      "version": "1.4.0",
      "model": "ADSR",
      "params": [
        {
          "id": 0,
          "value": 0.843500018
        },
        {
          "id": 1,
          "value": 0.691500068
        },
        {
          "id": 2,
          "value": 1.0
        },
        {
          "id": 3,
          "value": 0.817499995
        }
      ],
      "rightModuleId": 34,
      "pos": [
        1,
        1
      ]
    },
    {
      "id": 34,
      "plugin": "Fundamental",
      "version": "1.4.0",
      "model": "VCO",
      "params": [
        {
          "id": 0,
          "value": 1.0
        },
        {
          "id": 1,
          "value": 1.0
        },
        {
          "id": 2,
          "value": -46.6559677
        },
        {
          "id": 3,
          "value": 0.356999606
        },
        {
          "id": 4,
          "value": 0.727501154
        },
        {
          "id": 5,
          "value": 0.414740026
        },
        {
          "id": 6,
          "value": 0.0
        }
      ],
      "leftModuleId": 33,
      "rightModuleId": 36,
      "pos": [
        9,
        1
      ]
    },
    {
      "id": 35,
      "plugin": "Fundamental",
      "version": "1.4.0",
      "model": "VCMixer",
      "params": [
        {
          "id": 0,
          "value": 1.0
        },
        {
          "id": 1,
          "value": 0.750947356
        },
        {
          "id": 2,
          "value": 0.780645728
        },
        {
          "id": 3,
          "value": 1.22486091
        },
        {
          "id": 4,
          "value": 1.0
        }
      ],
      "leftModuleId": 36,
      "rightModuleId": 39,
      "pos": [
        27,
        1
      ]
    },
    {
      "id": 36,
      "plugin": "Fundamental",
      "version": "1.4.0",
      "model": "ADSR",
      "params": [
        {
          "id": 0,
          "value": 0.881000161
        },
        {
          "id": 1,
          "value": 0.597001195
        },
        {
          "id": 2,
          "value": 0.812499642
        },
        {
          "id": 3,
          "value": 0.871500254
        }
      ],
      "leftModuleId": 34,
      "rightModuleId": 35,
      "pos": [
        19,
        1
      ]
    },
    {
      "id": 39,
      "plugin": "rackwindows",
      "version": "1.1.2",
      "model": "chorus",
      "params": [
        {
          "id": 0,
          "value": 0.252499938
        },
        {
          "id": 1,
          "value": 0.670499623
        },
        {
          "id": 2,
          "value": 0.782499731
        },
        {
          "id": 3,
          "value": 1.0
        }
      ],
      "leftModuleId": 35,
      "rightModuleId": 42,
      "data": {
        "quality": 0
      },
      "pos": [
        37,
        1
      ]
    },
    {
      "id": 42,
      "plugin": "Dintree-Virtual",
      "version": "1.0.14",
      "model": "V103-Reverb_Delay",
      "params": [
        {
          "id": 0,
          "value": 0.268999934
        },
        {
          "id": 1,
          "value": 0.17399998
        },
        {
          "id": 2,
          "value": 0.303499848
        },
        {
          "id": 3,
          "value": 2.0
        },
        {
          "id": 4,
          "value": 0.0
        }
      ],
      "leftModuleId": 39,
      "rightModuleId": 8,
      "pos": [
        43,
        1
      ]
    },
    {
      "id": 93,
      "plugin": "NYSTHI",
      "version": "1.0.17",
      "model": "XYdisplay",
      "params": [
        {
          "id": 0,
          "value": 0.652000189
        },
        {
          "id": 1,
          "value": -0.125999957
        },
        {
          "id": 2,
          "value": 0.651999831
        },
        {
          "id": 3,
          "value": 0.162000105
        },
        {
          "id": 4,
          "value": 0.644765079
        },
        {
          "id": 5,
          "value": 5.89025021
        },
        {
          "id": 6,
          "value": 1.0
        },
        {
          "id": 7,
          "value": 1.0
        },
        {
          "id": 8,
          "value": 1.0
        },
        {
          "id": 9,
          "value": 1.0
        },
        {
          "id": 10,
          "value": 1.0
        },
        {
          "id": 11,
          "value": 20.0
        }
      ],
      "leftModuleId": 1,
      "data": {
        "m_scia_disabled": false,
        "m_scia_expo_fading": true,
        "m_show_header": false,
        "m_show_grid": false,
        "m_show_axis": false,
        "m_xy_mode": true,
        "m_burn_in": true,
        "m_faster_and_less_reso": true,
        "m_parcellized": false,
        "m_pointillized": false,
        "m_beam_color": 0
      },
      "pos": [
        67,
        0
      ]
    },
    {
      "id": 94,
      "plugin": "Bogaudio",
      "version": "1.1.37",
      "model": "Bogaudio-Analyzer",
      "params": [
        {
          "id": 0,
          "value": 0.0
        },
        {
          "id": 1,
          "value": 0.5
        },
        {
          "id": 2,
          "value": 1.0
        },
        {
          "id": 3,
          "value": 0.0
        },
        {
          "id": 4,
          "value": 1.0
        },
        {
          "id": 5,
          "value": 0.0
        }
      ],
      "leftModuleId": 8,
      "data": {
        "frequency_plot": "log",
        "amplitude_plot": "decibels_80"
      },
      "pos": [
        67,
        1
      ]
    }
  ],
  "cables": [
    {
      "id": 97,
      "outputModuleId": 5,
      "outputId": 0,
      "inputModuleId": 3,
      "inputId": 0,
      "color": "#c91847"
    },
    {
      "id": 99,
      "outputModuleId": 2,
      "outputId": 0,
      "inputModuleId": 1,
      "inputId": 0,
      "color": "#0986ad"
    },
    {
      "id": 100,
      "outputModuleId": 2,
      "outputId": 0,
      "inputModuleId": 1,
      "inputId": 1,
      "color": "#c9b70e"
    },
    {
      "id": 101,
      "outputModuleId": 6,
      "outputId": 0,
      "inputModuleId": 4,
      "inputId": 0,
      "color": "#c91847"
    },
    {
      "id": 103,
      "outputModuleId": 6,
      "outputId": 0,
      "inputModuleId": 2,
      "inputId": 5,
      "color": "#0c8e15"
    },
    {
      "id": 104,
      "outputModuleId": 4,
      "outputId": 0,
      "inputModuleId": 2,
      "inputId": 1,
      "color": "#0986ad"
    },
    {
      "id": 105,
      "outputModuleId": 2,
      "outputId": 1,
      "inputModuleId": 7,
      "inputId": 0,
      "color": "#c9b70e"
    },
    {
      "id": 106,
      "outputModuleId": 5,
      "outputId": 6,
      "inputModuleId": 6,
      "inputId": 5,
      "color": "#c91847"
    },
    {
      "id": 107,
      "outputModuleId": 5,
      "outputId": 1,
      "inputModuleId": 6,
      "inputId": 4,
      "color": "#0c8e15"
    },
    {
      "id": 108,
      "outputModuleId": 33,
      "outputId": 0,
      "inputModuleId": 3,
      "inputId": 1,
      "color": "#0986ad"
    },
    {
      "id": 110,
      "outputModuleId": 5,
      "outputId": 1,
      "inputModuleId": 33,
      "inputId": 4,
      "color": "#0c8e15"
    },
    {
      "id": 111,
      "outputModuleId": 5,
      "outputId": 0,
      "inputModuleId": 34,
      "inputId": 0,
      "color": "#c91847"
    },
    {
      "id": 113,
      "outputModuleId": 34,
      "outputId": 2,
      "inputModuleId": 35,
      "inputId": 2,
      "color": "#c91847"
    },
    {
      "id": 98,
      "outputModuleId": 3,
      "outputId": 2,
      "inputModuleId": 35,
      "inputId": 1,
      "color": "#0c8e15"
    },
    {
      "id": 114,
      "outputModuleId": 35,
      "outputId": 0,
      "inputModuleId": 4,
      "inputId": 3,
      "color": "#0986ad"
    },
    {
      "id": 109,
      "outputModuleId": 5,
      "outputId": 6,
      "inputModuleId": 33,
      "inputId": 5,
      "color": "#c9b70e"
    },
    {
      "id": 115,
      "outputModuleId": 36,
      "outputId": 0,
      "inputModuleId": 34,
      "inputId": 1,
      "color": "#0c8e15"
    },
    {
      "id": 116,
      "outputModuleId": 5,
      "outputId": 1,
      "inputModuleId": 36,
      "inputId": 4,
      "color": "#c91847"
    },
    {
      "id": 117,
      "outputModuleId": 5,
      "outputId": 6,
      "inputModuleId": 36,
      "inputId": 5,
      "color": "#0986ad"
    },
    {
      "id": 125,
      "outputModuleId": 35,
      "outputId": 0,
      "inputModuleId": 39,
      "inputId": 2,
      "color": "#0986ad"
    },
    {
      "id": 126,
      "outputModuleId": 35,
      "outputId": 0,
      "inputModuleId": 39,
      "inputId": 3,
      "color": "#c9b70e"
    },
    {
      "id": 127,
      "outputModuleId": 39,
      "outputId": 1,
      "inputModuleId": 2,
      "inputId": 2,
      "color": "#0c8e15"
    },
    {
      "id": 130,
      "outputModuleId": 39,
      "outputId": 1,
      "inputModuleId": 42,
      "inputId": 1,
      "color": "#c9b70e"
    },
    {
      "id": 132,
      "outputModuleId": 42,
      "outputId": 1,
      "inputModuleId": 2,
      "inputId": 3,
      "color": "#c91847"
    },
    {
      "id": 262,
      "outputModuleId": 6,
      "outputId": 0,
      "inputModuleId": 93,
      "inputId": 0,
      "color": "#c91847"
    },
    {
      "id": 264,
      "outputModuleId": 2,
      "outputId": 0,
      "inputModuleId": 94,
      "inputId": 0,
      "color": "#c9b70e"
    },
    {
      "id": 263,
      "outputModuleId": 42,
      "outputId": 1,
      "inputModuleId": 1,
      "inputId": 7,
      "color": "#0986ad"
    },
    {
      "id": 265,
      "outputModuleId": 39,
      "outputId": 1,
      "inputModuleId": 93,
      "inputId": 1,
      "color": "#0c8e15"
    }
  ]
}