{
  "version": "1.1.6",
  "modules": [
    {
      "id": 1,
      "plugin": "Core",
      "version": "1.1.6",
      "model": "AudioInterface",
      "params": [],
      "leftModuleId": 2,
      "rightModuleId": 8,
      "data": {
        "audio": {
          "driver": 7,
          "deviceName": "US-122 MKII / US-144 MKII",
          "offset": 0,
          "maxChannels": 8,
          "sampleRate": 44100,
          "blockSize": 128
        }
      },
      "pos": [
        57,
        0
      ]
    },
    {
      "id": 2,
      "plugin": "Fundamental",
      "version": "1.4.0",
      "model": "VCMixer",
      "params": [
        {
          "id": 0,
          "value": 0.22499992
        },
        {
          "id": 1,
          "value": 0.674579918
        },
        {
          "id": 2,
          "value": 0.91216749
        },
        {
          "id": 3,
          "value": 1.0
        },
        {
          "id": 4,
          "value": 1.0
        }
      ],
      "leftModuleId": 7,
      "rightModuleId": 1,
      "pos": [
        47,
        0
      ]
    },
    {
      "id": 3,
      "plugin": "Fundamental",
      "version": "1.4.0",
      "model": "VCO",
      "params": [
        {
          "id": 0,
          "value": 1.0
        },
        {
          "id": 1,
          "value": 1.0
        },
        {
          "id": 2,
          "value": -31.5899506
        },
        {
          "id": 3,
          "value": 0.0
        },
        {
          "id": 4,
          "value": 0.0
        },
        {
          "id": 5,
          "value": 0.5
        },
        {
          "id": 6,
          "value": 0.0
        }
      ],
      "leftModuleId": 5,
      "rightModuleId": 4,
      "pos": [
        8,
        0
      ]
    },
    {
      "id": 4,
      "plugin": "Fundamental",
      "version": "1.4.0",
      "model": "VCF",
      "params": [
        {
          "id": 0,
          "value": 0.381000608
        },
        {
          "id": 1,
          "value": 0.5
        },
        {
          "id": 2,
          "value": 0.655500829
        },
        {
          "id": 3,
          "value": 0.601000369
        },
        {
          "id": 4,
          "value": 0.0945002511
        }
      ],
      "leftModuleId": 3,
      "rightModuleId": 6,
      "pos": [
        18,
        0
      ]
    },
    {
      "id": 5,
      "plugin": "Core",
      "version": "1.1.6",
      "model": "MIDIToCVInterface",
      "params": [],
      "rightModuleId": 3,
      "data": {
        "channels": 1,
        "polyMode": 0,
        "clockDivision": 24,
        "lastPitch": 8192,
        "lastMod": 0,
        "midi": {
          "driver": -11,
          "deviceName": "QWERTY keyboard (US)",
          "channel": -1
        }
      },
      "pos": [
        0,
        0
      ]
    },
    {
      "id": 6,
      "plugin": "Fundamental",
      "version": "1.4.0",
      "model": "ADSR",
      "params": [
        {
          "id": 0,
          "value": 0.279000223
        },
        {
          "id": 1,
          "value": 0.800500274
        },
        {
          "id": 2,
          "value": 0.140999988
        },
        {
          "id": 3,
          "value": 0.87899965
        }
      ],
      "leftModuleId": 4,
      "rightModuleId": 7,
      "pos": [
        26,
        0
      ]
    },
    {
      "id": 7,
      "plugin": "Fundamental",
      "version": "1.4.0",
      "model": "Scope",
      "params": [
        {
          "id": 0,
          "value": 2.0
        },
        {
          "id": 1,
          "value": 0.0
        },
        {
          "id": 2,
          "value": 0.0
        },
        {
          "id": 3,
          "value": 0.0
        },
        {
          "id": 4,
          "value": 14.0
        },
        {
          "id": 5,
          "value": 0.0
        },
        {
          "id": 6,
          "value": 0.0
        },
        {
          "id": 7,
          "value": 0.0
        }
      ],
      "leftModuleId": 6,
      "rightModuleId": 2,
      "data": {
        "lissajous": 0,
        "external": 0
      },
      "pos": [
        34,
        0
      ]
    },
    {
      "id": 8,
      "plugin": "Core",
      "version": "1.1.6",
      "model": "Notes",
      "params": [],
      "leftModuleId": 1,
      "rightModuleId": 83,
      "text": "Demo patch instructions:\n\n1. Choose an audio driver and device in the AUDIO-8 module.\n\n2. Use the QWERTY and ZXCVB rows of your keyboard to generate MIDI notes, which are converted to 1V/oct and GATE signals.\n\n3. Drag knobs up/down. Hold Ctrl (Cmd on Mac) while dragging to fine-tune. Right-click knobs to edit, or double-click to initialize.\n\n4. Drag ports to create and move cables. Stack multiple cables on outputs by holding Ctrl (Cmd on Mac) and dragging from an output.\n\n5. Right-click on an empty rack space to add new modules.",
      "pos": [
        67,
        0
      ]
    },
    {
      "id": 71,
      "plugin": "Fundamental",
      "version": "1.4.0",
      "model": "SEQ3",
      "params": [
        {
          "id": 0,
          "value": 2.0
        },
        {
          "id": 1,
          "value": 0.0
        },
        {
          "id": 2,
          "value": 0.0
        },
        {
          "id": 3,
          "value": 5.0
        },
        {
          "id": 4,
          "value": 0.855000854
        },
        {
          "id": 5,
          "value": 2.48999977
        },
        {
          "id": 6,
          "value": 1.8900001
        },
        {
          "id": 7,
          "value": 2.31000018
        },
        {
          "id": 8,
          "value": 0.0
        },
        {
          "id": 9,
          "value": 0.0
        },
        {
          "id": 10,
          "value": 0.0
        },
        {
          "id": 11,
          "value": 0.0
        },
        {
          "id": 12,
          "value": 0.0
        },
        {
          "id": 13,
          "value": 0.0
        },
        {
          "id": 14,
          "value": 0.0
        },
        {
          "id": 15,
          "value": 0.0
        },
        {
          "id": 16,
          "value": 0.0
        },
        {
          "id": 17,
          "value": 0.0
        },
        {
          "id": 18,
          "value": 0.0
        },
        {
          "id": 19,
          "value": 0.0
        },
        {
          "id": 20,
          "value": 0.0
        },
        {
          "id": 21,
          "value": 0.0
        },
        {
          "id": 22,
          "value": 0.0
        },
        {
          "id": 23,
          "value": 0.0
        },
        {
          "id": 24,
          "value": 0.0
        },
        {
          "id": 25,
          "value": 0.0
        },
        {
          "id": 26,
          "value": 0.0
        },
        {
          "id": 27,
          "value": 0.0
        },
        {
          "id": 28,
          "value": 0.0
        },
        {
          "id": 29,
          "value": 0.0
        },
        {
          "id": 30,
          "value": 0.0
        },
        {
          "id": 31,
          "value": 0.0
        },
        {
          "id": 32,
          "value": 0.0
        },
        {
          "id": 33,
          "value": 0.0
        },
        {
          "id": 34,
          "value": 0.0
        },
        {
          "id": 35,
          "value": 0.0
        }
      ],
      "rightModuleId": 72,
      "data": {
        "running": true,
        "gates": [
          1,
          1,
          1,
          1,
          1,
          1,
          1,
          1
        ]
      },
      "pos": [
        0,
        1
      ]
    },
    {
      "id": 72,
      "plugin": "Fundamental",
      "version": "1.4.0",
      "model": "Quantizer",
      "params": [],
      "leftModuleId": 71,
      "rightModuleId": 74,
      "data": {
        "enabledNotes": [
          true,
          true,
          true,
          true,
          true,
          true,
          true,
          true,
          true,
          true,
          true,
          true
        ]
      },
      "pos": [
        22,
        1
      ]
    },
    {
      "id": 73,
      "plugin": "Fundamental",
      "version": "1.4.0",
      "model": "Quantizer",
      "params": [],
      "leftModuleId": 74,
      "rightModuleId": 77,
      "data": {
        "enabledNotes": [
          true,
          true,
          true,
          true,
          true,
          true,
          true,
          true,
          true,
          true,
          true,
          true
        ]
      },
      "pos": [
        47,
        1
      ]
    },
    {
      "id": 74,
      "plugin": "Fundamental",
      "version": "1.4.0",
      "model": "SEQ3",
      "params": [
        {
          "id": 0,
          "value": 2.0
        },
        {
          "id": 1,
          "value": 0.0
        },
        {
          "id": 2,
          "value": 0.0
        },
        {
          "id": 3,
          "value": 2.0
        },
        {
          "id": 4,
          "value": 1.89000058
        },
        {
          "id": 5,
          "value": 2.58000565
        },
        {
          "id": 6,
          "value": 0.0
        },
        {
          "id": 7,
          "value": 0.0
        },
        {
          "id": 8,
          "value": 0.0
        },
        {
          "id": 9,
          "value": 0.0
        },
        {
          "id": 10,
          "value": 0.0
        },
        {
          "id": 11,
          "value": 0.0
        },
        {
          "id": 12,
          "value": 0.0
        },
        {
          "id": 13,
          "value": 0.0
        },
        {
          "id": 14,
          "value": 0.0
        },
        {
          "id": 15,
          "value": 0.0
        },
        {
          "id": 16,
          "value": 0.0
        },
        {
          "id": 17,
          "value": 0.0
        },
        {
          "id": 18,
          "value": 0.0
        },
        {
          "id": 19,
          "value": 0.0
        },
        {
          "id": 20,
          "value": 0.0
        },
        {
          "id": 21,
          "value": 0.0
        },
        {
          "id": 22,
          "value": 0.0
        },
        {
          "id": 23,
          "value": 0.0
        },
        {
          "id": 24,
          "value": 0.0
        },
        {
          "id": 25,
          "value": 0.0
        },
        {
          "id": 26,
          "value": 0.0
        },
        {
          "id": 27,
          "value": 0.0
        },
        {
          "id": 28,
          "value": 0.0
        },
        {
          "id": 29,
          "value": 0.0
        },
        {
          "id": 30,
          "value": 0.0
        },
        {
          "id": 31,
          "value": 0.0
        },
        {
          "id": 32,
          "value": 0.0
        },
        {
          "id": 33,
          "value": 0.0
        },
        {
          "id": 34,
          "value": 0.0
        },
        {
          "id": 35,
          "value": 0.0
        }
      ],
      "leftModuleId": 72,
      "rightModuleId": 73,
      "data": {
        "running": true,
        "gates": [
          1,
          1,
          0,
          0,
          0,
          0,
          0,
          0
        ]
      },
      "pos": [
        25,
        1
      ]
    },
    {
      "id": 77,
      "plugin": "Fundamental",
      "version": "1.4.0",
      "model": "VCO",
      "params": [
        {
          "id": 0,
          "value": 1.0
        },
        {
          "id": 1,
          "value": 1.0
        },
        {
          "id": 2,
          "value": -40.0139809
        },
        {
          "id": 3,
          "value": 0.0
        },
        {
          "id": 4,
          "value": 0.0
        },
        {
          "id": 5,
          "value": 0.5
        },
        {
          "id": 6,
          "value": 0.0
        }
      ],
      "leftModuleId": 73,
      "rightModuleId": 79,
      "pos": [
        50,
        1
      ]
    },
    {
      "id": 79,
      "plugin": "Fundamental",
      "version": "1.4.0",
      "model": "VCF",
      "params": [
        {
          "id": 0,
          "value": 0.48149991
        },
        {
          "id": 1,
          "value": 0.5
        },
        {
          "id": 2,
          "value": 0.644999385
        },
        {
          "id": 3,
          "value": 0.666999936
        },
        {
          "id": 4,
          "value": 0.0
        }
      ],
      "leftModuleId": 77,
      "rightModuleId": 80,
      "pos": [
        60,
        1
      ]
    },
    {
      "id": 80,
      "plugin": "Fundamental",
      "version": "1.4.0",
      "model": "ADSR",
      "params": [
        {
          "id": 0,
          "value": 0.00450002961
        },
        {
          "id": 1,
          "value": 0.32949999
        },
        {
          "id": 2,
          "value": 0.318499863
        },
        {
          "id": 3,
          "value": 0.141499311
        }
      ],
      "leftModuleId": 79,
      "rightModuleId": 81,
      "pos": [
        68,
        1
      ]
    },
    {
      "id": 81,
      "plugin": "Fundamental",
      "version": "1.4.0",
      "model": "ADSR",
      "params": [
        {
          "id": 0,
          "value": 0.258000046
        },
        {
          "id": 1,
          "value": 0.270999759
        },
        {
          "id": 2,
          "value": 0.423500121
        },
        {
          "id": 3,
          "value": 0.167999998
        }
      ],
      "leftModuleId": 80,
      "rightModuleId": 82,
      "pos": [
        76,
        1
      ]
    },
    {
      "id": 82,
      "plugin": "Fundamental",
      "version": "1.4.0",
      "model": "LFO",
      "params": [
        {
          "id": 0,
          "value": 1.0
        },
        {
          "id": 1,
          "value": 1.0
        },
        {
          "id": 2,
          "value": -2.29399657
        },
        {
          "id": 3,
          "value": 0.122999996
        },
        {
          "id": 4,
          "value": 0.0
        },
        {
          "id": 5,
          "value": 0.5
        },
        {
          "id": 6,
          "value": 0.0
        }
      ],
      "leftModuleId": 81,
      "rightModuleId": 86,
      "pos": [
        84,
        1
      ]
    },
    {
      "id": 83,
      "plugin": "Bogaudio",
      "version": "1.1.37",
      "model": "Bogaudio-AnalyzerXL",
      "params": [],
      "leftModuleId": 8,
      "data": {
        "frequency_plot": "log",
        "range": 0.0,
        "amplitude_plot": "decibels_80",
        "smooth": 0.25,
        "quality": "good",
        "window": "kaiser"
      },
      "pos": [
        83,
        0
      ]
    },
    {
      "id": 85,
      "plugin": "NYSTHI",
      "version": "1.0.17",
      "model": "XYdisplay",
      "params": [
        {
          "id": 0,
          "value": 1.0
        },
        {
          "id": 1,
          "value": 0.0
        },
        {
          "id": 2,
          "value": 1.0
        },
        {
          "id": 3,
          "value": -0.237000138
        },
        {
          "id": 4,
          "value": 0.200000003
        },
        {
          "id": 5,
          "value": 2.0
        },
        {
          "id": 6,
          "value": 1.0
        },
        {
          "id": 7,
          "value": 1.0
        },
        {
          "id": 8,
          "value": 1.0
        },
        {
          "id": 9,
          "value": 1.0
        },
        {
          "id": 10,
          "value": 1.0
        },
        {
          "id": 11,
          "value": 20.0
        }
      ],
      "leftModuleId": 86,
      "data": {
        "m_scia_disabled": false,
        "m_scia_expo_fading": true,
        "m_show_header": false,
        "m_show_grid": false,
        "m_show_axis": false,
        "m_xy_mode": true,
        "m_burn_in": true,
        "m_faster_and_less_reso": true,
        "m_parcellized": false,
        "m_pointillized": false,
        "m_beam_color": 0
      },
      "pos": [
        114,
        1
      ]
    },
    {
      "id": 86,
      "plugin": "NYSTHI",
      "version": "1.0.17",
      "model": "UNNYSTHIPLEASURESGRAPHER",
      "params": [
        {
          "id": 0,
          "value": 1.56700146
        },
        {
          "id": 1,
          "value": 0.0
        },
        {
          "id": 2,
          "value": 0.0
        },
        {
          "id": 3,
          "value": 0.841000259
        }
      ],
      "leftModuleId": 82,
      "rightModuleId": 85,
      "data": {
        "m_windowing_function": 4,
        "m_bgnd_style": 0,
        "m_color_style": 0,
        "m_scroll_mode": 1,
        "m_fft_active": true
      },
      "pos": [
        94,
        1
      ]
    }
  ],
  "cables": [
    {
      "id": 215,
      "outputModuleId": 3,
      "outputId": 2,
      "inputModuleId": 4,
      "inputId": 3,
      "color": "#0c8e15"
    },
    {
      "id": 216,
      "outputModuleId": 2,
      "outputId": 0,
      "inputModuleId": 1,
      "inputId": 0,
      "color": "#0986ad"
    },
    {
      "id": 217,
      "outputModuleId": 2,
      "outputId": 0,
      "inputModuleId": 1,
      "inputId": 1,
      "color": "#c9b70e"
    },
    {
      "id": 218,
      "outputModuleId": 6,
      "outputId": 0,
      "inputModuleId": 4,
      "inputId": 0,
      "color": "#c91847"
    },
    {
      "id": 220,
      "outputModuleId": 6,
      "outputId": 0,
      "inputModuleId": 2,
      "inputId": 5,
      "color": "#0c8e15"
    },
    {
      "id": 221,
      "outputModuleId": 4,
      "outputId": 0,
      "inputModuleId": 2,
      "inputId": 1,
      "color": "#0986ad"
    },
    {
      "id": 223,
      "outputModuleId": 5,
      "outputId": 6,
      "inputModuleId": 6,
      "inputId": 5,
      "color": "#c91847"
    },
    {
      "id": 224,
      "outputModuleId": 71,
      "outputId": 1,
      "inputModuleId": 72,
      "inputId": 0,
      "color": "#c9b70e"
    },
    {
      "id": 225,
      "outputModuleId": 74,
      "outputId": 1,
      "inputModuleId": 73,
      "inputId": 0,
      "color": "#0c8e15"
    },
    {
      "id": 214,
      "outputModuleId": 72,
      "outputId": 0,
      "inputModuleId": 3,
      "inputId": 0,
      "color": "#c91847"
    },
    {
      "id": 219,
      "outputModuleId": 71,
      "outputId": 0,
      "inputModuleId": 6,
      "inputId": 4,
      "color": "#c9b70e"
    },
    {
      "id": 232,
      "outputModuleId": 73,
      "outputId": 0,
      "inputModuleId": 77,
      "inputId": 0,
      "color": "#c9b70e"
    },
    {
      "id": 233,
      "outputModuleId": 74,
      "outputId": 0,
      "inputModuleId": 80,
      "inputId": 4,
      "color": "#0c8e15"
    },
    {
      "id": 234,
      "outputModuleId": 74,
      "outputId": 0,
      "inputModuleId": 81,
      "inputId": 4,
      "color": "#0986ad"
    },
    {
      "id": 236,
      "outputModuleId": 80,
      "outputId": 0,
      "inputModuleId": 2,
      "inputId": 6,
      "color": "#0c8e15"
    },
    {
      "id": 237,
      "outputModuleId": 79,
      "outputId": 0,
      "inputModuleId": 2,
      "inputId": 2,
      "color": "#c91847"
    },
    {
      "id": 238,
      "outputModuleId": 77,
      "outputId": 3,
      "inputModuleId": 79,
      "inputId": 3,
      "color": "#0986ad"
    },
    {
      "id": 235,
      "outputModuleId": 81,
      "outputId": 0,
      "inputModuleId": 82,
      "inputId": 0,
      "color": "#c9b70e"
    },
    {
      "id": 241,
      "outputModuleId": 82,
      "outputId": 1,
      "inputModuleId": 79,
      "inputId": 0,
      "color": "#c9b70e"
    },
    {
      "id": 222,
      "outputModuleId": 2,
      "outputId": 0,
      "inputModuleId": 7,
      "inputId": 0,
      "color": "#c9b70e"
    },
    {
      "id": 243,
      "outputModuleId": 4,
      "outputId": 0,
      "inputModuleId": 83,
      "inputId": 0,
      "color": "#0986ad"
    },
    {
      "id": 244,
      "outputModuleId": 79,
      "outputId": 0,
      "inputModuleId": 83,
      "inputId": 1,
      "color": "#c9b70e"
    },
    {
      "id": 245,
      "outputModuleId": 4,
      "outputId": 0,
      "inputModuleId": 85,
      "inputId": 0,
      "color": "#0c8e15"
    },
    {
      "id": 246,
      "outputModuleId": 80,
      "outputId": 0,
      "inputModuleId": 85,
      "inputId": 1,
      "color": "#c91847"
    },
    {
      "id": 247,
      "outputModuleId": 2,
      "outputId": 0,
      "inputModuleId": 86,
      "inputId": 0,
      "color": "#0986ad"
    }
  ]
}