{
  "version": "1.1.6",
  "modules": [
    {
      "id": 1,
      "plugin": "Core",
      "version": "1.1.6",
      "model": "AudioInterface",
      "params": [],
      "leftModuleId": 2,
      "rightModuleId": 8,
      "data": {
        "audio": {
          "driver": 6,
          "deviceName": "Speakers (TASCAM US-122 MKII)",
          "offset": 0,
          "maxChannels": 8,
          "sampleRate": 44100,
          "blockSize": 256
        }
      },
      "pos": [
        41,
        0
      ]
    },
    {
      "id": 2,
      "plugin": "Fundamental",
      "version": "1.4.0",
      "model": "VCMixer",
      "params": [
        {
          "id": 0,
          "value": 0.666000128
        },
        {
          "id": 1,
          "value": 0.678822458
        },
        {
          "id": 2,
          "value": 0.827314854
        },
        {
          "id": 3,
          "value": 0.657609165
        },
        {
          "id": 4,
          "value": 1.0
        }
      ],
      "leftModuleId": 7,
      "rightModuleId": 1,
      "pos": [
        31,
        0
      ]
    },
    {
      "id": 3,
      "plugin": "Fundamental",
      "version": "1.4.0",
      "model": "VCO",
      "params": [
        {
          "id": 0,
          "value": 1.0
        },
        {
          "id": 1,
          "value": 1.0
        },
        {
          "id": 2,
          "value": -29.970068
        },
        {
          "id": 3,
          "value": 0.0
        },
        {
          "id": 4,
          "value": 0.0
        },
        {
          "id": 5,
          "value": 0.0144099994
        },
        {
          "id": 6,
          "value": 0.0
        }
      ],
      "leftModuleId": 5,
      "rightModuleId": 7,
      "pos": [
        8,
        0
      ]
    },
    {
      "id": 5,
      "plugin": "Core",
      "version": "1.1.6",
      "model": "MIDIToCVInterface",
      "params": [],
      "rightModuleId": 3,
      "data": {
        "channels": 1,
        "polyMode": 0,
        "clockDivision": 24,
        "lastPitch": 8192,
        "lastMod": 0,
        "midi": {
          "driver": 4,
          "deviceName": "LPK25 10",
          "channel": -1
        }
      },
      "pos": [
        0,
        0
      ]
    },
    {
      "id": 7,
      "plugin": "Fundamental",
      "version": "1.4.0",
      "model": "Scope",
      "params": [
        {
          "id": 0,
          "value": 0.0
        },
        {
          "id": 1,
          "value": 0.0
        },
        {
          "id": 2,
          "value": 0.0
        },
        {
          "id": 3,
          "value": 0.0
        },
        {
          "id": 4,
          "value": 14.0
        },
        {
          "id": 5,
          "value": 0.0
        },
        {
          "id": 6,
          "value": 0.0
        },
        {
          "id": 7,
          "value": 0.0
        }
      ],
      "leftModuleId": 3,
      "rightModuleId": 2,
      "data": {
        "lissajous": 0,
        "external": 0
      },
      "pos": [
        18,
        0
      ]
    },
    {
      "id": 8,
      "plugin": "Core",
      "version": "1.1.6",
      "model": "Notes",
      "params": [],
      "leftModuleId": 1,
      "rightModuleId": 88,
      "text": "Demo patch instructions:\n\n1. Choose an audio driver and device in the AUDIO-8 module.\n\n2. Use the QWERTY and ZXCVB rows of your keyboard to generate MIDI notes, which are converted to 1V/oct and GATE signals.\n\n3. Drag knobs up/down. Hold Ctrl (Cmd on Mac) while dragging to fine-tune. Right-click knobs to edit, or double-click to initialize.\n\n4. Drag ports to create and move cables. Stack multiple cables on outputs by holding Ctrl (Cmd on Mac) and dragging from an output.\n\n5. Right-click on an empty rack space to add new modules.",
      "pos": [
        51,
        0
      ]
    },
    {
      "id": 13,
      "plugin": "squinkylabs-plug1",
      "version": "1.0.15",
      "model": "squinkylabs-vocalfilter",
      "params": [
        {
          "id": 0,
          "value": -3.76999974
        },
        {
          "id": 1,
          "value": 1.0
        },
        {
          "id": 2,
          "value": -0.275000811
        },
        {
          "id": 3,
          "value": 1.0
        },
        {
          "id": 4,
          "value": -5.0
        },
        {
          "id": 5,
          "value": 1.0
        },
        {
          "id": 6,
          "value": 0.0
        },
        {
          "id": 7,
          "value": -0.14499934
        },
        {
          "id": 8,
          "value": 1.0
        }
      ],
      "rightModuleId": 14,
      "pos": [
        5,
        1
      ]
    },
    {
      "id": 14,
      "plugin": "Bogaudio",
      "version": "1.1.37",
      "model": "Bogaudio-VCF",
      "params": [
        {
          "id": 0,
          "value": 0.191049725
        },
        {
          "id": 1,
          "value": 0.0
        },
        {
          "id": 2,
          "value": 0.0
        },
        {
          "id": 3,
          "value": 0.2114999
        },
        {
          "id": 4,
          "value": 2.0
        },
        {
          "id": 5,
          "value": 0.403500557
        }
      ],
      "leftModuleId": 13,
      "rightModuleId": 23,
      "data": {
        "bandwidthMode": "pitched"
      },
      "pos": [
        17,
        1
      ]
    },
    {
      "id": 15,
      "plugin": "Bogaudio",
      "version": "1.1.37",
      "model": "Bogaudio-VCF",
      "params": [
        {
          "id": 0,
          "value": 0.24698177
        },
        {
          "id": 1,
          "value": 0.0
        },
        {
          "id": 2,
          "value": 0.0
        },
        {
          "id": 3,
          "value": 0.260499924
        },
        {
          "id": 4,
          "value": 2.0
        },
        {
          "id": 5,
          "value": 0.412500679
        }
      ],
      "leftModuleId": 23,
      "rightModuleId": 24,
      "data": {
        "bandwidthMode": "pitched"
      },
      "pos": [
        31,
        1
      ]
    },
    {
      "id": 16,
      "plugin": "Bogaudio",
      "version": "1.1.37",
      "model": "Bogaudio-VCF",
      "params": [
        {
          "id": 0,
          "value": 0.360555112
        },
        {
          "id": 1,
          "value": 0.0
        },
        {
          "id": 2,
          "value": 0.0
        },
        {
          "id": 3,
          "value": 0.310000151
        },
        {
          "id": 4,
          "value": 2.0
        },
        {
          "id": 5,
          "value": 0.295732588
        }
      ],
      "leftModuleId": 24,
      "rightModuleId": 25,
      "data": {
        "bandwidthMode": "pitched"
      },
      "pos": [
        45,
        1
      ]
    },
    {
      "id": 17,
      "plugin": "Bogaudio",
      "version": "1.1.37",
      "model": "Bogaudio-VCF",
      "params": [
        {
          "id": 0,
          "value": 0.187082872
        },
        {
          "id": 1,
          "value": 0.0
        },
        {
          "id": 2,
          "value": 0.0
        },
        {
          "id": 3,
          "value": 0.207000121
        },
        {
          "id": 4,
          "value": 2.0
        },
        {
          "id": 5,
          "value": 0.135999694
        }
      ],
      "rightModuleId": 18,
      "data": {
        "bandwidthMode": "pitched"
      },
      "pos": [
        4,
        2
      ]
    },
    {
      "id": 18,
      "plugin": "Bogaudio",
      "version": "1.1.37",
      "model": "Bogaudio-VCF",
      "params": [
        {
          "id": 0,
          "value": 0.24698177
        },
        {
          "id": 1,
          "value": 0.0
        },
        {
          "id": 2,
          "value": 0.0
        },
        {
          "id": 3,
          "value": 0.161500439
        },
        {
          "id": 4,
          "value": 2.0
        },
        {
          "id": 5,
          "value": 0.366232455
        }
      ],
      "leftModuleId": 17,
      "rightModuleId": 19,
      "data": {
        "bandwidthMode": "pitched"
      },
      "pos": [
        14,
        2
      ]
    },
    {
      "id": 19,
      "plugin": "Bogaudio",
      "version": "1.1.37",
      "model": "Bogaudio-VCF",
      "params": [
        {
          "id": 0,
          "value": 0.360555023
        },
        {
          "id": 1,
          "value": 0.0
        },
        {
          "id": 2,
          "value": 0.0
        },
        {
          "id": 3,
          "value": 0.0794994757
        },
        {
          "id": 4,
          "value": 2.0
        },
        {
          "id": 5,
          "value": 0.293999821
        }
      ],
      "leftModuleId": 18,
      "rightModuleId": 21,
      "data": {
        "bandwidthMode": "pitched"
      },
      "pos": [
        24,
        2
      ]
    },
    {
      "id": 21,
      "plugin": "Fundamental",
      "version": "1.4.0",
      "model": "VCMixer",
      "params": [
        {
          "id": 0,
          "value": 1.97899997
        },
        {
          "id": 1,
          "value": 1.10874259
        },
        {
          "id": 2,
          "value": 1.11157203
        },
        {
          "id": 3,
          "value": 1.12429988
        },
        {
          "id": 4,
          "value": 1.0
        }
      ],
      "leftModuleId": 19,
      "rightModuleId": 87,
      "pos": [
        34,
        2
      ]
    },
    {
      "id": 22,
      "plugin": "Bogaudio",
      "version": "1.1.37",
      "model": "Bogaudio-AnalyzerXL",
      "params": [],
      "leftModuleId": 25,
      "data": {
        "frequency_plot": "log",
        "range": -0.5,
        "amplitude_plot": "decibels_80",
        "smooth": 0.100000001,
        "quality": "high",
        "window": "hamming"
      },
      "pos": [
        59,
        1
      ]
    },
    {
      "id": 23,
      "plugin": "rackwindows",
      "version": "1.1.2",
      "model": "bitshiftgain",
      "params": [
        {
          "id": 0,
          "value": -0.0
        },
        {
          "id": 1,
          "value": 3.0
        },
        {
          "id": 2,
          "value": 0.0
        }
      ],
      "leftModuleId": 14,
      "rightModuleId": 15,
      "pos": [
        27,
        1
      ]
    },
    {
      "id": 24,
      "plugin": "rackwindows",
      "version": "1.1.2",
      "model": "bitshiftgain",
      "params": [
        {
          "id": 0,
          "value": -0.0
        },
        {
          "id": 1,
          "value": 3.0
        },
        {
          "id": 2,
          "value": 0.0
        }
      ],
      "leftModuleId": 15,
      "rightModuleId": 16,
      "pos": [
        41,
        1
      ]
    },
    {
      "id": 25,
      "plugin": "rackwindows",
      "version": "1.1.2",
      "model": "bitshiftgain",
      "params": [
        {
          "id": 0,
          "value": 0.0
        },
        {
          "id": 1,
          "value": -0.0
        },
        {
          "id": 2,
          "value": 0.0
        }
      ],
      "leftModuleId": 16,
      "rightModuleId": 22,
      "pos": [
        55,
        1
      ]
    },
    {
      "id": 87,
      "plugin": "NYSTHI",
      "version": "1.0.17",
      "model": "UNNYSTHIPLEASURESGRAPHER",
      "params": [
        {
          "id": 0,
          "value": 1.0
        },
        {
          "id": 1,
          "value": 0.0
        },
        {
          "id": 2,
          "value": 0.0
        },
        {
          "id": 3,
          "value": 1.0
        }
      ],
      "leftModuleId": 21,
      "rightModuleId": 89,
      "data": {
        "m_windowing_function": 1,
        "m_bgnd_style": 0,
        "m_color_style": 0,
        "m_scroll_mode": 1,
        "m_fft_active": true
      },
      "pos": [
        44,
        2
      ]
    },
    {
      "id": 88,
      "plugin": "NYSTHI",
      "version": "1.0.17",
      "model": "XYdisplay",
      "params": [
        {
          "id": 0,
          "value": 1.0
        },
        {
          "id": 1,
          "value": 0.0
        },
        {
          "id": 2,
          "value": 1.0
        },
        {
          "id": 3,
          "value": 0.0
        },
        {
          "id": 4,
          "value": 0.200000003
        },
        {
          "id": 5,
          "value": 2.0
        },
        {
          "id": 6,
          "value": 1.0
        },
        {
          "id": 7,
          "value": 1.0
        },
        {
          "id": 8,
          "value": 1.0
        },
        {
          "id": 9,
          "value": 1.0
        },
        {
          "id": 10,
          "value": 1.0
        },
        {
          "id": 11,
          "value": 20.0
        }
      ],
      "leftModuleId": 8,
      "data": {
        "m_scia_disabled": false,
        "m_scia_expo_fading": true,
        "m_show_header": false,
        "m_show_grid": false,
        "m_show_axis": false,
        "m_xy_mode": true,
        "m_burn_in": true,
        "m_faster_and_less_reso": true,
        "m_parcellized": false,
        "m_pointillized": false,
        "m_beam_color": 0
      },
      "pos": [
        67,
        0
      ]
    },
    {
      "id": 89,
      "plugin": "NYSTHI",
      "version": "1.0.17",
      "model": "XYdisplay",
      "params": [
        {
          "id": 0,
          "value": 1.0
        },
        {
          "id": 1,
          "value": 0.0
        },
        {
          "id": 2,
          "value": 1.0
        },
        {
          "id": 3,
          "value": 0.0
        },
        {
          "id": 4,
          "value": 0.200000003
        },
        {
          "id": 5,
          "value": 2.0
        },
        {
          "id": 6,
          "value": 1.0
        },
        {
          "id": 7,
          "value": 1.0
        },
        {
          "id": 8,
          "value": 1.0
        },
        {
          "id": 9,
          "value": 1.0
        },
        {
          "id": 10,
          "value": 1.0
        },
        {
          "id": 11,
          "value": 20.0
        }
      ],
      "leftModuleId": 87,
      "data": {
        "m_scia_disabled": false,
        "m_scia_expo_fading": true,
        "m_show_header": false,
        "m_show_grid": false,
        "m_show_axis": false,
        "m_xy_mode": true,
        "m_burn_in": true,
        "m_faster_and_less_reso": true,
        "m_parcellized": false,
        "m_pointillized": false,
        "m_beam_color": 0
      },
      "pos": [
        64,
        2
      ]
    }
  ],
  "cables": [
    {
      "id": 28,
      "outputModuleId": 5,
      "outputId": 0,
      "inputModuleId": 3,
      "inputId": 0,
      "color": "#c91847"
    },
    {
      "id": 30,
      "outputModuleId": 2,
      "outputId": 0,
      "inputModuleId": 1,
      "inputId": 0,
      "color": "#0986ad"
    },
    {
      "id": 31,
      "outputModuleId": 2,
      "outputId": 0,
      "inputModuleId": 1,
      "inputId": 1,
      "color": "#c9b70e"
    },
    {
      "id": 40,
      "outputModuleId": 19,
      "outputId": 0,
      "inputModuleId": 21,
      "inputId": 3,
      "color": "#c9b70e"
    },
    {
      "id": 41,
      "outputModuleId": 18,
      "outputId": 0,
      "inputModuleId": 21,
      "inputId": 2,
      "color": "#0c8e15"
    },
    {
      "id": 42,
      "outputModuleId": 17,
      "outputId": 0,
      "inputModuleId": 21,
      "inputId": 1,
      "color": "#c91847"
    },
    {
      "id": 43,
      "outputModuleId": 21,
      "outputId": 0,
      "inputModuleId": 2,
      "inputId": 2,
      "color": "#c9b70e"
    },
    {
      "id": 50,
      "outputModuleId": 21,
      "outputId": 0,
      "inputModuleId": 22,
      "inputId": 1,
      "color": "#0986ad"
    },
    {
      "id": 47,
      "outputModuleId": 3,
      "outputId": 3,
      "inputModuleId": 14,
      "inputId": 3,
      "color": "#c9b70e"
    },
    {
      "id": 46,
      "outputModuleId": 3,
      "outputId": 3,
      "inputModuleId": 19,
      "inputId": 3,
      "color": "#0986ad"
    },
    {
      "id": 45,
      "outputModuleId": 3,
      "outputId": 3,
      "inputModuleId": 18,
      "inputId": 3,
      "color": "#c91847"
    },
    {
      "id": 44,
      "outputModuleId": 3,
      "outputId": 3,
      "inputModuleId": 17,
      "inputId": 3,
      "color": "#0c8e15"
    },
    {
      "id": 36,
      "outputModuleId": 2,
      "outputId": 0,
      "inputModuleId": 7,
      "inputId": 0,
      "color": "#c9b70e"
    },
    {
      "id": 51,
      "outputModuleId": 3,
      "outputId": 3,
      "inputModuleId": 13,
      "inputId": 0,
      "color": "#c9b70e"
    },
    {
      "id": 52,
      "outputModuleId": 13,
      "outputId": 0,
      "inputModuleId": 2,
      "inputId": 3,
      "color": "#0c8e15"
    },
    {
      "id": 53,
      "outputModuleId": 13,
      "outputId": 0,
      "inputModuleId": 22,
      "inputId": 2,
      "color": "#c91847"
    },
    {
      "id": 67,
      "outputModuleId": 14,
      "outputId": 0,
      "inputModuleId": 23,
      "inputId": 1,
      "color": "#c91847"
    },
    {
      "id": 68,
      "outputModuleId": 23,
      "outputId": 1,
      "inputModuleId": 15,
      "inputId": 3,
      "color": "#0986ad"
    },
    {
      "id": 64,
      "outputModuleId": 15,
      "outputId": 0,
      "inputModuleId": 24,
      "inputId": 1,
      "color": "#0986ad"
    },
    {
      "id": 69,
      "outputModuleId": 24,
      "outputId": 1,
      "inputModuleId": 16,
      "inputId": 3,
      "color": "#c9b70e"
    },
    {
      "id": 61,
      "outputModuleId": 25,
      "outputId": 1,
      "inputModuleId": 2,
      "inputId": 1,
      "color": "#0986ad"
    },
    {
      "id": 70,
      "outputModuleId": 16,
      "outputId": 0,
      "inputModuleId": 25,
      "inputId": 1,
      "color": "#0c8e15"
    },
    {
      "id": 71,
      "outputModuleId": 25,
      "outputId": 1,
      "inputModuleId": 22,
      "inputId": 0,
      "color": "#c91847"
    },
    {
      "id": 248,
      "outputModuleId": 2,
      "outputId": 0,
      "inputModuleId": 87,
      "inputId": 0,
      "color": "#c9b70e"
    },
    {
      "id": 249,
      "outputModuleId": 2,
      "outputId": 0,
      "inputModuleId": 88,
      "inputId": 0,
      "color": "#0c8e15"
    },
    {
      "id": 250,
      "outputModuleId": 25,
      "outputId": 1,
      "inputModuleId": 88,
      "inputId": 1,
      "color": "#c91847"
    },
    {
      "id": 251,
      "outputModuleId": 13,
      "outputId": 0,
      "inputModuleId": 89,
      "inputId": 1,
      "color": "#0986ad"
    },
    {
      "id": 252,
      "outputModuleId": 21,
      "outputId": 0,
      "inputModuleId": 89,
      "inputId": 0,
      "color": "#c9b70e"
    }
  ]
}